<svg xmlns="http://www.w3.org/2000/svg" xmlns:xlink="http://www.w3.org/1999/xlink" width="500" zoomAndPan="magnify" viewBox="0 0 375 374.999991" height="500" preserveAspectRatio="xMidYMid meet" version="1.0"><defs><g/><clipPath id="5375e993df"><path d="M 184 91 L 265.769531 91 L 265.769531 179 L 184 179 Z M 184 91 " clip-rule="nonzero"/></clipPath><clipPath id="db978d645a"><path d="M 110.519531 70 L 130 70 L 130 90 L 110.519531 90 Z M 110.519531 70 " clip-rule="nonzero"/></clipPath><clipPath id="1d7d7c5f61"><path d="M 148 37.5 L 160 37.5 L 160 49 L 148 49 Z M 148 37.5 " clip-rule="nonzero"/></clipPath></defs><path fill="#f9ed32" d="M 192.023438 63.355469 C 192.691406 63.355469 193.351562 63.289062 194.003906 63.160156 C 194.660156 63.03125 195.292969 62.835938 195.910156 62.582031 C 196.527344 62.324219 197.113281 62.011719 197.667969 61.640625 C 198.222656 61.269531 198.734375 60.851562 199.207031 60.378906 C 199.679688 59.90625 200.097656 59.390625 200.46875 58.835938 C 200.839844 58.28125 201.152344 57.695312 201.410156 57.078125 C 201.664062 56.460938 201.859375 55.828125 201.988281 55.171875 C 202.117188 54.515625 202.183594 53.855469 202.183594 53.1875 C 202.183594 52.519531 202.121094 51.859375 201.992188 51.203125 C 201.859375 50.550781 201.667969 49.914062 201.414062 49.296875 C 201.160156 48.679688 200.847656 48.09375 200.476562 47.535156 C 200.105469 46.980469 199.6875 46.46875 199.214844 45.996094 C 198.746094 45.523438 198.230469 45.101562 197.679688 44.726562 C 197.125 44.355469 196.539062 44.042969 195.921875 43.785156 C 195.308594 43.53125 194.671875 43.335938 194.019531 43.207031 C 193.363281 43.074219 192.703125 43.007812 192.039062 43.007812 C 191.371094 43.007812 190.710938 43.070312 190.054688 43.199219 C 189.402344 43.328125 188.765625 43.523438 188.148438 43.777344 C 187.535156 44.03125 186.949219 44.34375 186.390625 44.714844 C 185.835938 45.082031 185.324219 45.503906 184.851562 45.976562 C 184.378906 46.449219 183.957031 46.960938 183.585938 47.515625 C 183.214844 48.070312 182.902344 48.65625 182.644531 49.273438 C 182.386719 49.886719 182.195312 50.523438 182.0625 51.179688 C 181.933594 51.832031 181.867188 52.496094 181.863281 53.160156 C 181.863281 53.832031 181.929688 54.492188 182.058594 55.148438 C 182.1875 55.804688 182.382812 56.441406 182.636719 57.058594 C 182.890625 57.675781 183.207031 58.261719 183.574219 58.820312 C 183.945312 59.375 184.367188 59.890625 184.839844 60.363281 C 185.308594 60.835938 185.824219 61.257812 186.378906 61.628906 C 186.933594 62.003906 187.519531 62.316406 188.132812 62.574219 C 188.75 62.832031 189.386719 63.023438 190.042969 63.15625 C 190.695312 63.289062 191.355469 63.355469 192.023438 63.355469 Z M 192.023438 63.355469 " fill-opacity="0.78" fill-rule="evenodd"/><path fill="#662d91" d="M 241.242188 71.199219 C 244 74.40625 246.285156 77.921875 248.089844 81.75 C 249.894531 85.574219 251.152344 89.574219 251.871094 93.746094 C 253.929688 105.804688 250.789062 116.972656 252.992188 124.476562 C 253.507812 126.160156 254.199219 127.765625 255.066406 129.296875 C 254.550781 129.597656 254.027344 129.882812 253.496094 130.152344 C 252.964844 130.425781 252.425781 130.679688 251.882812 130.917969 C 251.335938 131.15625 250.785156 131.378906 250.226562 131.585938 C 249.667969 131.792969 249.101562 131.984375 248.53125 132.160156 C 247.964844 132.335938 247.390625 132.496094 246.8125 132.636719 C 246.234375 132.777344 245.652344 132.902344 245.066406 133.011719 C 244.480469 133.121094 243.890625 133.210938 243.300781 133.289062 C 242.710938 133.363281 242.117188 133.421875 241.523438 133.460938 C 240.929688 133.5 240.332031 133.527344 239.738281 133.53125 C 239.144531 133.539062 238.546875 133.527344 237.953125 133.5 C 237.359375 133.472656 236.765625 133.429688 236.171875 133.367188 C 235.578125 133.304688 234.988281 133.226562 234.402344 133.132812 C 233.8125 133.035156 233.230469 132.921875 232.648438 132.792969 C 232.066406 132.664062 231.488281 132.519531 230.914062 132.355469 C 230.34375 132.195312 229.773438 132.015625 229.210938 131.820312 C 228.648438 131.625 228.089844 131.414062 227.539062 131.1875 C 226.988281 130.960938 226.445312 130.71875 225.910156 130.460938 C 225.371094 130.203125 224.84375 129.929688 224.320312 129.640625 C 223.800781 129.351562 223.289062 129.050781 222.785156 128.730469 C 222.28125 128.414062 221.785156 128.082031 221.300781 127.734375 C 220.816406 127.390625 220.339844 127.027344 219.878906 126.65625 C 219.414062 126.28125 218.960938 125.894531 218.519531 125.496094 C 218.074219 125.097656 217.644531 124.683594 217.226562 124.257812 C 216.808594 123.835938 216.402344 123.398438 216.007812 122.953125 C 215.617188 122.503906 215.234375 122.046875 214.867188 121.574219 C 214.5 121.105469 214.148438 120.625 213.808594 120.136719 C 213.46875 119.648438 213.140625 119.148438 212.832031 118.640625 C 212.519531 118.132812 212.222656 117.613281 211.941406 117.089844 C 211.660156 116.5625 211.394531 116.03125 211.144531 115.488281 C 210.890625 114.949219 210.65625 114.402344 210.4375 113.847656 C 210.21875 113.292969 210.011719 112.730469 209.824219 112.164062 C 209.636719 111.601562 209.464844 111.027344 209.3125 110.453125 C 209.15625 109.878906 209.019531 109.296875 208.898438 108.714844 C 208.773438 108.128906 208.671875 107.542969 208.582031 106.953125 C 208.496094 106.363281 208.421875 105.769531 208.367188 105.175781 C 208.316406 104.582031 208.277344 103.988281 208.257812 103.390625 C 208.238281 102.796875 208.234375 102.199219 208.25 101.605469 C 208.261719 101.007812 208.292969 100.414062 208.34375 99.816406 C 208.390625 99.222656 208.457031 98.632812 208.539062 98.039062 C 208.621094 97.449219 208.71875 96.863281 208.835938 96.277344 C 208.949219 95.691406 209.082031 95.109375 209.230469 94.535156 C 209.378906 93.957031 209.546875 93.382812 209.726562 92.816406 C 209.910156 92.246094 210.109375 91.683594 210.320312 91.128906 C 210.535156 90.570312 210.765625 90.023438 211.011719 89.480469 C 211.257812 88.9375 211.519531 88.398438 211.792969 87.871094 C 212.070312 87.34375 212.363281 86.824219 212.667969 86.3125 C 212.972656 85.800781 213.292969 85.296875 213.628906 84.804688 C 213.964844 84.3125 214.3125 83.828125 214.675781 83.355469 C 215.039062 82.882812 215.414062 82.417969 215.800781 81.96875 C 216.191406 81.515625 216.59375 81.074219 217.007812 80.648438 C 217.421875 80.21875 217.847656 79.800781 218.285156 79.398438 C 218.722656 78.996094 219.171875 78.601562 219.632812 78.226562 C 220.09375 77.847656 220.5625 77.480469 221.046875 77.128906 C 221.527344 76.78125 222.019531 76.441406 222.519531 76.121094 C 223.019531 75.796875 223.527344 75.488281 224.046875 75.195312 C 224.566406 74.898438 225.089844 74.621094 225.625 74.359375 C 226.160156 74.09375 226.703125 73.847656 227.25 73.613281 C 227.796875 73.382812 228.351562 73.164062 228.914062 72.964844 C 229.476562 72.765625 230.042969 72.578125 230.613281 72.410156 C 231.183594 72.242188 231.761719 72.09375 232.339844 71.957031 C 232.921875 71.820312 233.503906 71.703125 234.089844 71.601562 C 234.675781 71.5 235.265625 71.417969 235.859375 71.347656 C 236.449219 71.28125 237.042969 71.230469 237.636719 71.195312 C 238.234375 71.164062 238.828125 71.148438 239.421875 71.148438 C 240.011719 71.148438 240.628906 71.167969 241.242188 71.199219 Z M 241.242188 71.199219 " fill-opacity="0.78" fill-rule="evenodd"/><g clip-path="url(#5375e993df)"><path fill="#92278f" d="M 252.476562 99.050781 C 253.128906 109.042969 251.113281 118.085938 252.992188 124.503906 C 256.203125 135.460938 270.445312 145.386719 263.789062 151.023438 C 261.6875 152.714844 258.0625 152.824219 255.9375 154.480469 C 252.554688 157.125 254.867188 159.984375 255.167969 162.046875 C 255.3125 163.023438 254.425781 164.597656 251.5 166.507812 C 253.710938 168.140625 253.507812 169.523438 252.71875 170.796875 C 251.640625 171.535156 250.535156 172.226562 249.394531 172.863281 C 248.253906 173.503906 247.089844 174.089844 245.898438 174.621094 C 244.707031 175.15625 243.492188 175.632812 242.257812 176.058594 C 241.023438 176.480469 239.769531 176.847656 238.503906 177.15625 C 237.234375 177.46875 235.953125 177.71875 234.664062 177.914062 C 233.371094 178.109375 232.074219 178.246094 230.773438 178.320312 C 229.46875 178.398438 228.164062 178.417969 226.859375 178.375 C 225.554688 178.332031 224.253906 178.234375 222.960938 178.074219 C 221.664062 177.914062 220.378906 177.699219 219.101562 177.421875 C 217.824219 177.148438 216.5625 176.816406 215.316406 176.425781 C 214.070312 176.035156 212.84375 175.59375 211.640625 175.089844 C 210.433594 174.589844 209.253906 174.035156 208.097656 173.429688 C 206.941406 172.820312 205.8125 172.164062 204.71875 171.453125 C 203.621094 170.746094 202.558594 169.988281 201.53125 169.183594 C 200.5 168.375 199.511719 167.527344 198.558594 166.628906 C 197.609375 165.734375 196.699219 164.800781 195.832031 163.820312 C 194.964844 162.84375 194.144531 161.828125 193.371094 160.777344 C 192.59375 159.726562 191.867188 158.640625 191.191406 157.523438 C 190.511719 156.40625 189.886719 155.261719 189.3125 154.085938 C 188.742188 152.910156 188.21875 151.714844 187.753906 150.492188 C 187.289062 149.273438 186.878906 148.03125 186.527344 146.773438 C 186.171875 145.515625 185.875 144.242188 185.636719 142.957031 C 185.398438 141.671875 185.21875 140.378906 185.09375 139.078125 C 184.972656 137.777344 184.910156 136.472656 184.90625 135.164062 C 184.902344 133.859375 184.957031 132.554688 185.070312 131.25 C 185.183594 129.949219 185.355469 128.652344 185.585938 127.367188 C 185.8125 126.082031 186.101562 124.808594 186.449219 123.546875 C 186.792969 122.285156 187.195312 121.042969 187.652344 119.820312 C 188.109375 118.59375 188.621094 117.394531 189.1875 116.214844 C 189.753906 115.035156 190.371094 113.886719 191.039062 112.765625 C 191.710938 111.644531 192.429688 110.554688 193.199219 109.496094 C 193.964844 108.4375 194.78125 107.417969 195.640625 106.4375 C 196.5 105.453125 197.402344 104.511719 198.347656 103.609375 C 199.292969 102.707031 200.277344 101.851562 201.300781 101.039062 C 202.324219 100.226562 203.378906 99.460938 204.472656 98.742188 C 205.5625 98.027344 206.6875 97.359375 207.839844 96.746094 C 208.988281 96.128906 210.167969 95.570312 211.371094 95.058594 C 212.574219 94.550781 213.796875 94.097656 215.039062 93.699219 C 216.28125 93.300781 217.542969 92.960938 218.816406 92.675781 C 220.089844 92.394531 221.375 92.167969 222.667969 92 C 223.964844 91.832031 225.265625 91.722656 226.570312 91.671875 C 227.875 91.625 229.175781 91.632812 230.480469 91.699219 C 231.785156 91.769531 233.082031 91.894531 234.375 92.082031 C 235.667969 92.265625 236.949219 92.511719 238.21875 92.8125 C 239.488281 93.113281 240.742188 93.472656 241.980469 93.886719 C 243.21875 94.304688 244.4375 94.773438 245.632812 95.296875 C 246.828125 95.824219 247.996094 96.402344 249.140625 97.03125 C 250.28125 97.664062 251.394531 98.347656 252.476562 99.078125 Z M 252.476562 99.050781 " fill-opacity="0.78" fill-rule="evenodd"/></g><path fill="#007fc6" d="M 243.203125 194.902344 C 226.746094 201.613281 204.71875 179.109375 201.753906 225 C 191.054688 217.964844 179.71875 212.1875 167.742188 207.667969 C 167.246094 206.941406 166.777344 206.199219 166.332031 205.445312 C 165.882812 204.6875 165.460938 203.917969 165.0625 203.136719 C 164.664062 202.351562 164.289062 201.558594 163.9375 200.753906 C 163.589844 199.945312 163.265625 199.128906 162.964844 198.304688 C 162.667969 197.476562 162.394531 196.644531 162.148438 195.800781 C 161.902344 194.957031 161.683594 194.105469 161.488281 193.25 C 161.296875 192.390625 161.128906 191.53125 160.992188 190.660156 C 160.851562 189.792969 160.738281 188.921875 160.65625 188.050781 C 160.570312 187.175781 160.511719 186.296875 160.480469 185.417969 C 160.453125 184.542969 160.449219 183.664062 160.472656 182.785156 C 160.496094 181.90625 160.550781 181.03125 160.628906 180.15625 C 160.707031 179.28125 160.816406 178.40625 160.949219 177.539062 C 161.082031 176.671875 161.242188 175.808594 161.429688 174.949219 C 161.617188 174.089844 161.832031 173.238281 162.074219 172.394531 C 162.316406 171.550781 162.582031 170.714844 162.875 169.886719 C 163.167969 169.058594 163.488281 168.238281 163.832031 167.429688 C 164.175781 166.621094 164.542969 165.824219 164.9375 165.039062 C 165.332031 164.253906 165.75 163.484375 166.191406 162.722656 C 166.636719 161.964844 167.101562 161.222656 167.589844 160.492188 C 168.078125 159.761719 168.589844 159.046875 169.121094 158.351562 C 169.65625 157.652344 170.210938 156.972656 170.785156 156.308594 C 171.363281 155.644531 171.957031 155 172.574219 154.375 C 173.191406 153.75 173.824219 153.144531 174.480469 152.558594 C 175.132812 151.972656 175.804688 151.40625 176.492188 150.863281 C 177.183594 150.320312 177.886719 149.796875 178.609375 149.296875 C 179.332031 148.796875 180.066406 148.320312 180.820312 147.867188 C 181.570312 147.414062 182.335938 146.984375 183.113281 146.578125 C 183.894531 146.171875 184.683594 145.792969 185.484375 145.433594 C 186.289062 145.078125 187.101562 144.75 187.921875 144.441406 C 188.746094 144.136719 189.578125 143.859375 190.417969 143.605469 C 191.257812 143.351562 192.105469 143.125 192.960938 142.925781 C 193.8125 142.726562 194.675781 142.550781 195.539062 142.40625 C 196.40625 142.257812 197.273438 142.140625 198.144531 142.046875 C 199.019531 141.957031 199.894531 141.890625 200.769531 141.855469 C 201.648438 141.816406 202.523438 141.808594 203.402344 141.824219 C 204.277344 141.84375 205.15625 141.886719 206.027344 141.960938 C 206.902344 142.03125 207.773438 142.132812 208.644531 142.261719 C 209.511719 142.386719 210.375 142.542969 211.234375 142.722656 C 212.09375 142.902344 212.945312 143.113281 213.789062 143.347656 C 214.636719 143.582031 215.472656 143.84375 216.300781 144.128906 C 217.132812 144.417969 217.953125 144.730469 218.761719 145.066406 C 219.570312 145.40625 220.371094 145.769531 221.15625 146.15625 C 221.945312 146.546875 222.71875 146.957031 223.480469 147.394531 C 224.242188 147.832031 224.988281 148.292969 225.71875 148.777344 C 226.453125 149.261719 227.171875 149.765625 227.871094 150.292969 C 228.570312 150.824219 229.257812 151.371094 229.921875 151.945312 C 230.589844 152.515625 231.238281 153.105469 231.867188 153.71875 C 232.496094 154.332031 233.105469 154.960938 233.695312 155.613281 C 234.289062 156.261719 234.855469 156.929688 235.40625 157.617188 C 235.953125 158.300781 236.480469 159.003906 236.984375 159.722656 C 237.488281 160.441406 237.972656 161.175781 238.429688 161.925781 C 238.890625 162.675781 239.324219 163.4375 239.734375 164.210938 C 240.148438 164.988281 240.535156 165.777344 240.894531 166.578125 C 241.257812 167.378906 241.59375 168.1875 241.90625 169.011719 C 242.21875 169.832031 242.503906 170.664062 242.761719 171.5 C 243.023438 172.339844 243.253906 173.1875 243.460938 174.042969 C 243.667969 174.894531 243.847656 175.753906 244 176.621094 C 244.152344 177.484375 244.28125 178.355469 244.378906 179.226562 C 244.476562 180.101562 244.546875 180.976562 244.59375 181.855469 C 244.636719 182.730469 244.652344 183.609375 244.640625 184.488281 C 244.628906 185.367188 244.59375 186.246094 244.527344 187.121094 C 244.460938 187.996094 244.367188 188.871094 244.25 189.742188 C 244.128906 190.609375 243.980469 191.476562 243.804688 192.339844 C 243.632812 193.199219 243.429688 194.054688 243.203125 194.902344 Z M 243.203125 194.902344 " fill-opacity="0.78" fill-rule="evenodd"/><path fill="#01a6e6" d="M 219.042969 195.136719 C 210.351562 195.503906 203.339844 200.515625 201.753906 225 C 191.117188 218.007812 179.84375 212.253906 167.945312 207.738281 C 167.980469 206.25 168.136719 204.777344 168.410156 203.3125 C 168.6875 201.851562 169.082031 200.421875 169.589844 199.023438 C 170.101562 197.625 170.722656 196.277344 171.449219 194.980469 C 172.179688 193.683594 173.011719 192.453125 173.941406 191.292969 C 174.871094 190.132812 175.890625 189.054688 177 188.0625 C 178.105469 187.066406 179.285156 186.171875 180.539062 185.371094 C 181.792969 184.570312 183.101562 183.875 184.46875 183.289062 C 185.835938 182.703125 187.238281 182.234375 188.683594 181.878906 C 190.125 181.523438 191.589844 181.285156 193.070312 181.167969 C 194.554688 181.050781 196.035156 181.058594 197.515625 181.183594 C 198.996094 181.308594 200.457031 181.554688 201.898438 181.921875 C 203.339844 182.285156 204.742188 182.765625 206.105469 183.363281 C 207.46875 183.957031 208.773438 184.660156 210.019531 185.46875 C 211.269531 186.277344 212.441406 187.183594 213.542969 188.183594 C 214.644531 189.183594 215.65625 190.269531 216.578125 191.433594 C 217.5 192.601562 218.324219 193.835938 219.042969 195.136719 Z M 219.042969 195.136719 " fill-opacity="0.78" fill-rule="evenodd"/><path fill="#2063b2" d="M 258.804688 153.078125 C 257.773438 153.378906 256.816406 153.835938 255.9375 154.457031 C 252.554688 157.097656 254.867188 159.957031 255.167969 162.019531 C 255.3125 163 254.425781 164.570312 251.5 166.484375 C 254.882812 168.980469 252.609375 170.894531 251.246094 172.734375 C 244.917969 177.300781 253.722656 187.203125 243.28125 194.875 C 232.742188 199.222656 219.929688 191.554688 211.277344 197.441406 C 211.140625 196.648438 211.027344 195.855469 210.9375 195.054688 C 210.851562 194.257812 210.789062 193.457031 210.75 192.652344 C 210.710938 191.851562 210.695312 191.046875 210.707031 190.246094 C 210.71875 189.441406 210.757812 188.640625 210.816406 187.835938 C 210.878906 187.035156 210.964844 186.238281 211.074219 185.441406 C 211.183594 184.644531 211.320312 183.855469 211.480469 183.066406 C 211.640625 182.28125 211.824219 181.496094 212.03125 180.722656 C 212.238281 179.945312 212.472656 179.175781 212.726562 178.414062 C 212.984375 177.652344 213.261719 176.902344 213.5625 176.15625 C 213.867188 175.410156 214.191406 174.675781 214.539062 173.953125 C 214.886719 173.230469 215.257812 172.515625 215.648438 171.816406 C 216.039062 171.113281 216.453125 170.425781 216.890625 169.75 C 217.324219 169.074219 217.777344 168.414062 218.253906 167.765625 C 218.730469 167.117188 219.226562 166.488281 219.738281 165.871094 C 220.253906 165.253906 220.789062 164.65625 221.339844 164.070312 C 221.890625 163.488281 222.460938 162.921875 223.046875 162.375 C 223.632812 161.824219 224.238281 161.296875 224.859375 160.785156 C 225.476562 160.277344 226.113281 159.785156 226.761719 159.3125 C 227.414062 158.84375 228.078125 158.390625 228.753906 157.960938 C 229.433594 157.53125 230.125 157.125 230.828125 156.738281 C 231.53125 156.351562 232.246094 155.984375 232.96875 155.644531 C 233.695312 155.300781 234.433594 154.980469 235.179688 154.683594 C 235.921875 154.386719 236.679688 154.113281 237.441406 153.863281 C 238.203125 153.613281 238.972656 153.386719 239.75 153.1875 C 240.527344 152.984375 241.308594 152.804688 242.097656 152.652344 C 242.882812 152.5 243.675781 152.371094 244.472656 152.265625 C 245.265625 152.160156 246.066406 152.082031 246.867188 152.027344 C 247.664062 151.972656 248.46875 151.941406 249.269531 151.9375 C 250.074219 151.929688 250.875 151.953125 251.675781 151.996094 C 252.476562 152.039062 253.277344 152.109375 254.074219 152.203125 C 254.871094 152.300781 255.664062 152.417969 256.453125 152.5625 C 257.242188 152.707031 258.027344 152.875 258.804688 153.066406 Z M 258.804688 153.078125 " fill-opacity="0.78" fill-rule="evenodd"/><path fill="#12bcbc" d="M 136.425781 153.566406 C 137.414062 153.570312 138.394531 153.472656 139.363281 153.28125 C 140.332031 153.085938 141.273438 152.800781 142.1875 152.421875 C 143.101562 152.046875 143.96875 151.582031 144.789062 151.03125 C 145.609375 150.480469 146.371094 149.859375 147.070312 149.15625 C 147.769531 148.457031 148.394531 147.699219 148.941406 146.875 C 149.492188 146.050781 149.957031 145.183594 150.335938 144.269531 C 150.710938 143.355469 151 142.414062 151.191406 141.441406 C 151.382812 140.472656 151.480469 139.492188 151.480469 138.503906 C 151.480469 137.511719 151.386719 136.53125 151.191406 135.5625 C 151 134.589844 150.714844 133.648438 150.335938 132.734375 C 149.957031 131.820312 149.496094 130.953125 148.945312 130.128906 C 148.394531 129.304688 147.773438 128.546875 147.074219 127.84375 C 146.375 127.144531 145.613281 126.519531 144.792969 125.972656 C 143.972656 125.421875 143.105469 124.957031 142.191406 124.578125 C 141.277344 124.199219 140.335938 123.914062 139.367188 123.722656 C 138.398438 123.527344 137.417969 123.433594 136.429688 123.433594 C 135.441406 123.433594 134.464844 123.527344 133.496094 123.722656 C 132.527344 123.914062 131.585938 124.203125 130.671875 124.582031 C 129.757812 124.960938 128.890625 125.421875 128.070312 125.972656 C 127.25 126.523438 126.488281 127.148438 125.789062 127.847656 C 125.089844 128.546875 124.46875 129.308594 123.917969 130.132812 C 123.371094 130.957031 122.90625 131.824219 122.527344 132.738281 C 122.152344 133.652344 121.867188 134.597656 121.671875 135.566406 C 121.480469 136.535156 121.382812 137.515625 121.386719 138.507812 C 121.386719 139.496094 121.484375 140.472656 121.679688 141.441406 C 121.875 142.410156 122.160156 143.351562 122.539062 144.265625 C 122.917969 145.179688 123.382812 146.046875 123.929688 146.867188 C 124.480469 147.6875 125.101562 148.449219 125.800781 149.148438 C 126.5 149.847656 127.257812 150.46875 128.078125 151.019531 C 128.898438 151.570312 129.765625 152.035156 130.675781 152.414062 C 131.585938 152.792969 132.527344 153.078125 133.496094 153.273438 C 134.460938 153.46875 135.441406 153.566406 136.425781 153.566406 Z M 136.425781 153.566406 " fill-opacity="0.78" fill-rule="evenodd"/><path fill="#00b9f1" d="M 167.945312 174.542969 C 168.84375 174.542969 169.738281 174.460938 170.625 174.285156 C 171.507812 174.113281 172.367188 173.851562 173.203125 173.511719 C 174.035156 173.167969 174.828125 172.746094 175.578125 172.246094 C 176.332031 171.746094 177.027344 171.175781 177.664062 170.539062 C 178.304688 169.902344 178.875 169.210938 179.378906 168.460938 C 179.878906 167.710938 180.304688 166.917969 180.652344 166.085938 C 181 165.253906 181.261719 164.394531 181.4375 163.507812 C 181.617188 162.621094 181.707031 161.726562 181.707031 160.824219 C 181.710938 159.921875 181.621094 159.027344 181.449219 158.140625 C 181.273438 157.257812 181.015625 156.394531 180.671875 155.5625 C 180.328125 154.726562 179.90625 153.933594 179.40625 153.179688 C 178.90625 152.429688 178.339844 151.734375 177.703125 151.09375 C 177.066406 150.457031 176.371094 149.882812 175.621094 149.382812 C 174.875 148.878906 174.082031 148.453125 173.25 148.109375 C 172.417969 147.761719 171.558594 147.5 170.675781 147.324219 C 169.789062 147.144531 168.898438 147.054688 167.996094 147.054688 C 167.09375 147.054688 166.199219 147.140625 165.316406 147.316406 C 164.429688 147.492188 163.574219 147.753906 162.738281 148.097656 C 161.90625 148.441406 161.113281 148.867188 160.363281 149.367188 C 159.613281 149.867188 158.921875 150.4375 158.28125 151.078125 C 157.644531 151.714844 157.074219 152.410156 156.574219 153.160156 C 156.070312 153.910156 155.648438 154.703125 155.304688 155.535156 C 154.957031 156.371094 154.699219 157.230469 154.523438 158.117188 C 154.34375 159 154.257812 159.894531 154.257812 160.800781 C 154.257812 161.699219 154.347656 162.589844 154.523438 163.472656 C 154.699219 164.355469 154.960938 165.214844 155.304688 166.046875 C 155.648438 166.875 156.070312 167.667969 156.570312 168.417969 C 157.070312 169.164062 157.636719 169.859375 158.269531 170.496094 C 158.90625 171.132812 159.597656 171.703125 160.34375 172.203125 C 161.089844 172.707031 161.878906 173.132812 162.707031 173.476562 C 163.535156 173.824219 164.390625 174.089844 165.273438 174.265625 C 166.15625 174.445312 167.042969 174.539062 167.945312 174.542969 Z M 167.945312 174.542969 " fill-opacity="0.78" fill-rule="evenodd"/><path fill="#8dc63f" d="M 134.261719 116.898438 C 134.957031 116.898438 135.640625 116.832031 136.320312 116.695312 C 137 116.5625 137.660156 116.359375 138.296875 116.097656 C 138.9375 115.832031 139.546875 115.503906 140.121094 115.121094 C 140.699219 114.734375 141.230469 114.296875 141.71875 113.804688 C 142.210938 113.316406 142.648438 112.78125 143.03125 112.207031 C 143.414062 111.628906 143.742188 111.019531 144.003906 110.378906 C 144.269531 109.738281 144.46875 109.078125 144.605469 108.398438 C 144.742188 107.71875 144.808594 107.03125 144.808594 106.339844 C 144.808594 105.644531 144.738281 104.957031 144.605469 104.277344 C 144.46875 103.597656 144.269531 102.9375 144.003906 102.296875 C 143.738281 101.65625 143.414062 101.046875 143.027344 100.472656 C 142.644531 99.894531 142.207031 99.363281 141.71875 98.871094 C 141.226562 98.382812 140.695312 97.945312 140.117188 97.558594 C 139.542969 97.175781 138.933594 96.847656 138.292969 96.585938 C 137.65625 96.320312 136.996094 96.121094 136.316406 95.984375 C 135.636719 95.847656 134.949219 95.78125 134.257812 95.78125 C 133.566406 95.78125 132.878906 95.851562 132.203125 95.984375 C 131.523438 96.121094 130.863281 96.320312 130.222656 96.585938 C 129.582031 96.851562 128.976562 97.179688 128.398438 97.566406 C 127.824219 97.949219 127.292969 98.386719 126.804688 98.878906 C 126.3125 99.367188 125.875 99.902344 125.492188 100.480469 C 125.109375 101.054688 124.78125 101.664062 124.519531 102.304688 C 124.253906 102.945312 124.054688 103.605469 123.917969 104.289062 C 123.785156 104.96875 123.71875 105.652344 123.71875 106.347656 C 123.71875 107.039062 123.789062 107.726562 123.925781 108.40625 C 124.058594 109.085938 124.261719 109.746094 124.527344 110.382812 C 124.792969 111.023438 125.117188 111.632812 125.5 112.207031 C 125.886719 112.78125 126.324219 113.316406 126.8125 113.804688 C 127.300781 114.296875 127.835938 114.734375 128.410156 115.117188 C 128.984375 115.503906 129.59375 115.828125 130.230469 116.09375 C 130.871094 116.359375 131.527344 116.558594 132.207031 116.695312 C 132.886719 116.832031 133.570312 116.898438 134.261719 116.898438 Z M 134.261719 116.898438 " fill-opacity="0.78" fill-rule="evenodd"/><g clip-path="url(#db978d645a)"><path fill="#ffd900" d="M 129.003906 80.105469 C 129.003906 80.707031 128.945312 81.300781 128.828125 81.890625 C 128.710938 82.480469 128.539062 83.050781 128.308594 83.605469 C 128.078125 84.160156 127.796875 84.6875 127.464844 85.1875 C 127.132812 85.6875 126.753906 86.148438 126.328125 86.570312 C 125.90625 86.996094 125.445312 87.375 124.945312 87.707031 C 124.445312 88.042969 123.921875 88.324219 123.367188 88.554688 C 122.8125 88.785156 122.242188 88.957031 121.65625 89.074219 C 121.066406 89.191406 120.472656 89.25 119.875 89.25 C 119.273438 89.25 118.679688 89.191406 118.089844 89.074219 C 117.503906 88.957031 116.933594 88.785156 116.378906 88.554688 C 115.824219 88.324219 115.300781 88.042969 114.800781 87.707031 C 114.300781 87.375 113.839844 86.996094 113.417969 86.570312 C 112.992188 86.148438 112.613281 85.6875 112.28125 85.1875 C 111.949219 84.6875 111.667969 84.160156 111.4375 83.605469 C 111.207031 83.050781 111.035156 82.480469 110.917969 81.890625 C 110.800781 81.300781 110.742188 80.707031 110.742188 80.105469 C 110.742188 79.507812 110.800781 78.914062 110.917969 78.324219 C 111.035156 77.734375 111.207031 77.164062 111.4375 76.609375 C 111.667969 76.054688 111.949219 75.527344 112.28125 75.027344 C 112.613281 74.527344 112.992188 74.066406 113.417969 73.640625 C 113.839844 73.21875 114.300781 72.839844 114.800781 72.503906 C 115.300781 72.171875 115.824219 71.890625 116.378906 71.660156 C 116.933594 71.429688 117.503906 71.257812 118.089844 71.140625 C 118.679688 71.023438 119.273438 70.964844 119.875 70.964844 C 120.472656 70.964844 121.066406 71.023438 121.65625 71.140625 C 122.242188 71.257812 122.8125 71.429688 123.367188 71.660156 C 123.921875 71.890625 124.445312 72.171875 124.945312 72.503906 C 125.445312 72.839844 125.90625 73.21875 126.328125 73.640625 C 126.753906 74.066406 127.132812 74.527344 127.464844 75.027344 C 127.796875 75.527344 128.078125 76.054688 128.308594 76.609375 C 128.539062 77.164062 128.710938 77.734375 128.828125 78.324219 C 128.945312 78.914062 129.003906 79.507812 129.003906 80.105469 Z M 129.003906 80.105469 " fill-opacity="0.78" fill-rule="nonzero"/></g><path fill="#009444" d="M 139.164062 63.355469 C 139.722656 63.355469 140.277344 63.300781 140.828125 63.191406 C 141.375 63.082031 141.910156 62.921875 142.425781 62.707031 C 142.945312 62.492188 143.4375 62.230469 143.902344 61.921875 C 144.367188 61.609375 144.796875 61.253906 145.195312 60.859375 C 145.589844 60.464844 145.945312 60.03125 146.253906 59.566406 C 146.566406 59.101562 146.828125 58.609375 147.042969 58.089844 C 147.257812 57.574219 147.421875 57.039062 147.53125 56.488281 C 147.640625 55.941406 147.695312 55.382812 147.695312 54.824219 C 147.695312 54.261719 147.640625 53.707031 147.53125 53.160156 C 147.421875 52.609375 147.261719 52.074219 147.046875 51.554688 C 146.832031 51.039062 146.570312 50.546875 146.261719 50.082031 C 145.949219 49.613281 145.597656 49.183594 145.199219 48.785156 C 144.804688 48.390625 144.375 48.035156 143.910156 47.722656 C 143.441406 47.414062 142.953125 47.148438 142.433594 46.933594 C 141.917969 46.71875 141.386719 46.558594 140.835938 46.449219 C 140.285156 46.339844 139.730469 46.285156 139.171875 46.285156 C 138.613281 46.285156 138.058594 46.339844 137.507812 46.449219 C 136.960938 46.554688 136.425781 46.71875 135.910156 46.933594 C 135.390625 47.148438 134.902344 47.410156 134.433594 47.722656 C 133.96875 48.03125 133.539062 48.386719 133.144531 48.78125 C 132.746094 49.179688 132.394531 49.609375 132.082031 50.078125 C 131.773438 50.542969 131.507812 51.035156 131.296875 51.550781 C 131.082031 52.070312 130.917969 52.605469 130.808594 53.152344 C 130.699219 53.703125 130.644531 54.257812 130.644531 54.820312 C 130.648438 55.378906 130.703125 55.933594 130.8125 56.484375 C 130.921875 57.03125 131.082031 57.566406 131.296875 58.082031 C 131.511719 58.601562 131.773438 59.089844 132.085938 59.558594 C 132.394531 60.023438 132.75 60.453125 133.144531 60.847656 C 133.539062 61.246094 133.96875 61.597656 134.433594 61.910156 C 134.898438 62.222656 135.390625 62.484375 135.90625 62.699219 C 136.421875 62.914062 136.953125 63.078125 137.503906 63.1875 C 138.050781 63.296875 138.605469 63.355469 139.164062 63.355469 Z M 139.164062 63.355469 " fill-opacity="0.78" fill-rule="evenodd"/><path fill="#56ba48" d="M 142.058594 84.628906 C 142.425781 84.628906 142.792969 84.59375 143.15625 84.519531 C 143.519531 84.449219 143.871094 84.34375 144.210938 84.199219 C 144.554688 84.058594 144.878906 83.886719 145.1875 83.679688 C 145.492188 83.472656 145.777344 83.238281 146.039062 82.976562 C 146.300781 82.714844 146.535156 82.429688 146.738281 82.125 C 146.945312 81.816406 147.117188 81.492188 147.257812 81.148438 C 147.402344 80.808594 147.507812 80.453125 147.578125 80.089844 C 147.652344 79.726562 147.6875 79.363281 147.6875 78.992188 C 147.6875 78.621094 147.652344 78.253906 147.578125 77.890625 C 147.507812 77.527344 147.402344 77.175781 147.257812 76.832031 C 147.117188 76.492188 146.945312 76.167969 146.738281 75.859375 C 146.535156 75.550781 146.300781 75.265625 146.039062 75.003906 C 145.777344 74.742188 145.492188 74.507812 145.1875 74.304688 C 144.878906 74.097656 144.554688 73.921875 144.210938 73.78125 C 143.871094 73.640625 143.519531 73.535156 143.15625 73.460938 C 142.792969 73.390625 142.425781 73.351562 142.058594 73.351562 C 141.6875 73.351562 141.320312 73.390625 140.957031 73.460938 C 140.597656 73.535156 140.246094 73.640625 139.902344 73.78125 C 139.5625 73.921875 139.238281 74.097656 138.929688 74.304688 C 138.621094 74.507812 138.335938 74.742188 138.074219 75.003906 C 137.8125 75.265625 137.582031 75.550781 137.375 75.859375 C 137.171875 76.167969 136.996094 76.492188 136.855469 76.832031 C 136.714844 77.175781 136.605469 77.527344 136.535156 77.890625 C 136.460938 78.253906 136.425781 78.621094 136.425781 78.992188 C 136.425781 79.359375 136.464844 79.726562 136.535156 80.089844 C 136.609375 80.453125 136.71875 80.804688 136.859375 81.148438 C 137 81.488281 137.175781 81.8125 137.378906 82.121094 C 137.585938 82.429688 137.820312 82.710938 138.078125 82.972656 C 138.339844 83.234375 138.625 83.46875 138.933594 83.675781 C 139.238281 83.882812 139.5625 84.054688 139.90625 84.195312 C 140.246094 84.339844 140.597656 84.445312 140.960938 84.519531 C 141.320312 84.59375 141.6875 84.628906 142.058594 84.628906 Z M 142.058594 84.628906 " fill-opacity="0.78" fill-rule="evenodd"/><g clip-path="url(#1d7d7c5f61)"><path fill="#fbad17" d="M 153.800781 48.777344 C 154.171875 48.777344 154.539062 48.742188 154.898438 48.667969 C 155.261719 48.597656 155.613281 48.488281 155.957031 48.347656 C 156.296875 48.207031 156.621094 48.03125 156.929688 47.828125 C 157.238281 47.621094 157.519531 47.386719 157.78125 47.125 C 158.042969 46.863281 158.277344 46.578125 158.484375 46.269531 C 158.6875 45.964844 158.863281 45.636719 159.003906 45.296875 C 159.144531 44.953125 159.25 44.601562 159.324219 44.238281 C 159.394531 43.875 159.433594 43.507812 159.433594 43.136719 C 159.433594 42.769531 159.394531 42.402344 159.324219 42.039062 C 159.25 41.675781 159.144531 41.324219 159.003906 40.980469 C 158.863281 40.636719 158.6875 40.3125 158.484375 40.003906 C 158.277344 39.699219 158.042969 39.414062 157.78125 39.152344 C 157.519531 38.890625 157.238281 38.65625 156.929688 38.449219 C 156.621094 38.246094 156.296875 38.070312 155.957031 37.929688 C 155.613281 37.789062 155.261719 37.679688 154.898438 37.609375 C 154.539062 37.535156 154.171875 37.5 153.800781 37.5 C 153.429688 37.5 153.066406 37.535156 152.703125 37.609375 C 152.339844 37.679688 151.988281 37.789062 151.644531 37.929688 C 151.304688 38.070312 150.980469 38.246094 150.671875 38.449219 C 150.367188 38.65625 150.082031 38.890625 149.820312 39.152344 C 149.558594 39.414062 149.324219 39.699219 149.121094 40.003906 C 148.914062 40.3125 148.742188 40.636719 148.597656 40.980469 C 148.457031 41.324219 148.351562 41.675781 148.277344 42.039062 C 148.207031 42.402344 148.171875 42.769531 148.171875 43.136719 C 148.171875 43.507812 148.207031 43.875 148.28125 44.238281 C 148.355469 44.601562 148.460938 44.953125 148.601562 45.292969 C 148.746094 45.636719 148.917969 45.960938 149.125 46.269531 C 149.328125 46.574219 149.5625 46.859375 149.824219 47.121094 C 150.085938 47.382812 150.367188 47.617188 150.675781 47.824219 C 150.984375 48.027344 151.308594 48.203125 151.648438 48.34375 C 151.988281 48.484375 152.339844 48.59375 152.703125 48.667969 C 153.066406 48.738281 153.433594 48.777344 153.800781 48.777344 Z M 153.800781 48.777344 " fill-opacity="0.78" fill-rule="evenodd"/></g><path fill="#f15c22" d="M 119.214844 61.34375 C 119.496094 61.34375 119.769531 61.316406 120.046875 61.257812 C 120.320312 61.203125 120.585938 61.121094 120.84375 61.011719 C 121.101562 60.90625 121.34375 60.773438 121.578125 60.617188 C 121.808594 60.460938 122.023438 60.28125 122.21875 60.082031 C 122.417969 59.886719 122.59375 59.667969 122.746094 59.4375 C 122.902344 59.203125 123.03125 58.957031 123.136719 58.695312 C 123.246094 58.4375 123.324219 58.171875 123.378906 57.898438 C 123.433594 57.621094 123.457031 57.34375 123.457031 57.066406 C 123.457031 56.785156 123.429688 56.507812 123.375 56.234375 C 123.316406 55.957031 123.238281 55.691406 123.128906 55.433594 C 123.019531 55.175781 122.890625 54.929688 122.734375 54.699219 C 122.578125 54.464844 122.398438 54.25 122.203125 54.054688 C 122.003906 53.855469 121.789062 53.679688 121.554688 53.523438 C 121.324219 53.367188 121.078125 53.238281 120.820312 53.132812 C 120.558594 53.023438 120.292969 52.945312 120.019531 52.890625 C 119.746094 52.835938 119.46875 52.808594 119.1875 52.808594 C 118.910156 52.808594 118.632812 52.835938 118.359375 52.894531 C 118.085938 52.949219 117.816406 53.027344 117.558594 53.136719 C 117.300781 53.242188 117.054688 53.375 116.824219 53.53125 C 116.589844 53.6875 116.375 53.863281 116.179688 54.0625 C 115.980469 54.261719 115.804688 54.476562 115.648438 54.707031 C 115.496094 54.941406 115.363281 55.1875 115.257812 55.445312 C 115.148438 55.703125 115.070312 55.972656 115.015625 56.246094 C 114.960938 56.519531 114.933594 56.796875 114.933594 57.078125 C 114.933594 57.359375 114.960938 57.636719 115.019531 57.910156 C 115.074219 58.1875 115.15625 58.453125 115.261719 58.714844 C 115.371094 58.972656 115.503906 59.21875 115.660156 59.453125 C 115.816406 59.683594 115.992188 59.898438 116.191406 60.097656 C 116.390625 60.296875 116.605469 60.472656 116.839844 60.628906 C 117.074219 60.785156 117.320312 60.914062 117.578125 61.023438 C 117.839844 61.128906 118.105469 61.210938 118.382812 61.265625 C 118.65625 61.320312 118.933594 61.347656 119.214844 61.34375 Z M 119.214844 61.34375 " fill-opacity="0.78" fill-rule="evenodd"/><path fill="#fbad17" d="M 220.53125 104.886719 C 220.53125 106.054688 220.472656 107.21875 220.359375 108.382812 C 220.246094 109.542969 220.074219 110.699219 219.847656 111.84375 C 219.617188 112.988281 219.335938 114.121094 218.996094 115.238281 C 218.65625 116.355469 218.265625 117.453125 217.820312 118.535156 C 217.371094 119.613281 216.875 120.667969 216.324219 121.699219 C 215.773438 122.726562 215.175781 123.726562 214.527344 124.699219 C 213.878906 125.671875 213.1875 126.609375 212.445312 127.511719 C 211.707031 128.414062 210.921875 129.277344 210.097656 130.105469 C 209.273438 130.929688 208.410156 131.714844 207.507812 132.453125 C 206.605469 133.195312 205.671875 133.890625 204.703125 134.539062 C 203.730469 135.1875 202.730469 135.789062 201.703125 136.339844 C 200.675781 136.890625 199.621094 137.386719 198.542969 137.835938 C 197.464844 138.28125 196.371094 138.675781 195.253906 139.011719 C 194.136719 139.351562 193.007812 139.636719 191.863281 139.863281 C 190.71875 140.09375 189.566406 140.261719 188.40625 140.378906 C 187.246094 140.492188 186.082031 140.550781 184.914062 140.550781 C 183.746094 140.550781 182.582031 140.492188 181.421875 140.378906 C 180.261719 140.261719 179.109375 140.09375 177.964844 139.863281 C 176.820312 139.636719 175.691406 139.351562 174.574219 139.011719 C 173.460938 138.675781 172.363281 138.28125 171.285156 137.835938 C 170.207031 137.386719 169.152344 136.890625 168.125 136.339844 C 167.097656 135.789062 166.097656 135.1875 165.125 134.539062 C 164.15625 133.890625 163.222656 133.195312 162.320312 132.453125 C 161.417969 131.714844 160.554688 130.929688 159.730469 130.105469 C 158.90625 129.277344 158.121094 128.414062 157.382812 127.511719 C 156.640625 126.609375 155.949219 125.671875 155.300781 124.699219 C 154.652344 123.726562 154.054688 122.726562 153.503906 121.699219 C 152.953125 120.667969 152.457031 119.613281 152.007812 118.535156 C 151.5625 117.453125 151.171875 116.355469 150.832031 115.238281 C 150.492188 114.121094 150.210938 112.988281 149.980469 111.84375 C 149.753906 110.699219 149.582031 109.542969 149.46875 108.382812 C 149.355469 107.21875 149.296875 106.054688 149.296875 104.886719 C 149.296875 103.71875 149.355469 102.550781 149.46875 101.390625 C 149.582031 100.226562 149.753906 99.074219 149.980469 97.929688 C 150.210938 96.78125 150.492188 95.652344 150.832031 94.53125 C 151.171875 93.414062 151.5625 92.316406 152.007812 91.238281 C 152.457031 90.160156 152.953125 89.105469 153.503906 88.074219 C 154.054688 87.042969 154.652344 86.042969 155.300781 85.070312 C 155.949219 84.101562 156.640625 83.164062 157.382812 82.261719 C 158.121094 81.359375 158.90625 80.492188 159.730469 79.667969 C 160.554688 78.839844 161.417969 78.058594 162.320312 77.316406 C 163.222656 76.578125 164.15625 75.882812 165.125 75.234375 C 166.097656 74.582031 167.097656 73.984375 168.125 73.433594 C 169.152344 72.882812 170.207031 72.382812 171.285156 71.9375 C 172.363281 71.488281 173.460938 71.097656 174.574219 70.757812 C 175.691406 70.417969 176.820312 70.136719 177.964844 69.90625 C 179.109375 69.679688 180.261719 69.507812 181.421875 69.394531 C 182.582031 69.277344 183.746094 69.222656 184.914062 69.222656 C 186.082031 69.222656 187.246094 69.277344 188.40625 69.394531 C 189.566406 69.507812 190.71875 69.679688 191.863281 69.90625 C 193.007812 70.136719 194.136719 70.417969 195.253906 70.757812 C 196.371094 71.097656 197.464844 71.488281 198.542969 71.9375 C 199.621094 72.382812 200.675781 72.882812 201.703125 73.433594 C 202.730469 73.984375 203.730469 74.582031 204.703125 75.234375 C 205.671875 75.882812 206.605469 76.578125 207.507812 77.316406 C 208.410156 78.058594 209.273438 78.839844 210.097656 79.667969 C 210.921875 80.492188 211.707031 81.359375 212.445312 82.261719 C 213.1875 83.164062 213.878906 84.101562 214.527344 85.070312 C 215.175781 86.042969 215.773438 87.042969 216.324219 88.074219 C 216.875 89.105469 217.371094 90.160156 217.820312 91.238281 C 218.265625 92.316406 218.65625 93.414062 218.996094 94.53125 C 219.335938 95.652344 219.617188 96.78125 219.847656 97.929688 C 220.074219 99.074219 220.246094 100.226562 220.359375 101.390625 C 220.472656 102.550781 220.53125 103.71875 220.53125 104.886719 Z M 220.53125 104.886719 " fill-opacity="0.78" fill-rule="nonzero"/><path fill="#ec008b" d="M 204.589844 50.902344 C 221.65625 54.429688 235.957031 62.988281 244.390625 75.304688 C 244.316406 75.824219 244.230469 76.34375 244.125 76.859375 C 244.019531 77.375 243.898438 77.886719 243.761719 78.398438 C 243.628906 78.90625 243.476562 79.410156 243.308594 79.90625 C 243.140625 80.40625 242.957031 80.902344 242.761719 81.386719 C 242.5625 81.875 242.347656 82.355469 242.121094 82.832031 C 241.894531 83.304688 241.652344 83.773438 241.394531 84.234375 C 241.140625 84.691406 240.867188 85.144531 240.582031 85.585938 C 240.300781 86.027344 240 86.460938 239.691406 86.886719 C 239.378906 87.3125 239.054688 87.726562 238.71875 88.128906 C 238.382812 88.53125 238.03125 88.925781 237.671875 89.308594 C 237.308594 89.691406 236.9375 90.0625 236.550781 90.421875 C 236.167969 90.78125 235.773438 91.128906 235.367188 91.460938 C 234.960938 91.796875 234.546875 92.121094 234.121094 92.429688 C 233.695312 92.738281 233.261719 93.035156 232.816406 93.316406 C 232.371094 93.597656 231.921875 93.867188 231.460938 94.121094 C 231 94.375 230.53125 94.613281 230.054688 94.839844 C 229.582031 95.0625 229.097656 95.273438 228.609375 95.46875 C 228.121094 95.664062 227.628906 95.84375 227.128906 96.007812 C 226.628906 96.171875 226.125 96.320312 225.617188 96.453125 C 225.109375 96.585938 224.597656 96.703125 224.082031 96.804688 C 223.566406 96.90625 223.046875 96.992188 222.523438 97.0625 C 222.003906 97.132812 221.480469 97.183594 220.957031 97.222656 C 220.433594 97.257812 219.90625 97.277344 219.382812 97.28125 C 218.855469 97.289062 218.332031 97.273438 217.804688 97.246094 C 217.28125 97.21875 216.757812 97.175781 216.234375 97.113281 C 215.710938 97.050781 215.191406 96.976562 214.675781 96.882812 C 214.15625 96.789062 213.644531 96.679688 213.132812 96.554688 C 212.621094 96.429688 212.117188 96.289062 211.613281 96.132812 C 211.113281 95.976562 210.613281 95.804688 210.125 95.617188 C 209.632812 95.429688 209.148438 95.226562 208.667969 95.011719 C 208.191406 94.792969 207.71875 94.5625 207.253906 94.316406 C 206.789062 94.070312 206.332031 93.808594 205.882812 93.53125 C 205.4375 93.257812 204.996094 92.96875 204.566406 92.667969 C 204.136719 92.367188 203.714844 92.050781 203.304688 91.722656 C 202.890625 91.394531 202.492188 91.054688 202.101562 90.699219 C 201.710938 90.347656 201.332031 89.980469 200.964844 89.605469 C 200.597656 89.230469 200.242188 88.839844 199.898438 88.441406 C 199.554688 88.042969 199.226562 87.636719 198.90625 87.214844 C 198.589844 86.796875 198.285156 86.367188 197.992188 85.929688 C 197.703125 85.492188 197.425781 85.046875 197.160156 84.589844 C 196.894531 84.132812 196.648438 83.671875 196.410156 83.199219 C 196.175781 82.730469 195.957031 82.253906 195.75 81.769531 C 195.542969 81.285156 195.355469 80.792969 195.179688 80.296875 C 195.003906 79.800781 194.84375 79.300781 194.699219 78.792969 C 194.554688 78.285156 194.425781 77.777344 194.3125 77.261719 C 194.199219 76.75 194.101562 76.230469 194.023438 75.710938 C 193.941406 75.191406 193.878906 74.667969 193.828125 74.144531 C 193.78125 73.621094 193.746094 73.09375 193.730469 72.570312 C 193.714844 72.042969 193.714844 71.515625 193.734375 70.992188 C 193.75 70.464844 193.78125 69.9375 193.832031 69.414062 C 193.878906 68.890625 193.945312 68.367188 194.027344 67.847656 C 194.109375 67.328125 194.207031 66.8125 194.320312 66.296875 C 194.433594 65.785156 194.5625 65.273438 194.707031 64.765625 C 194.851562 64.261719 195.011719 63.761719 195.1875 63.265625 C 195.363281 62.769531 195.554688 62.277344 195.761719 61.792969 C 195.96875 61.308594 196.1875 60.832031 196.425781 60.363281 C 196.660156 59.890625 196.910156 59.429688 197.175781 58.972656 C 197.4375 58.519531 197.71875 58.070312 198.007812 57.632812 C 198.300781 57.195312 198.605469 56.769531 198.925781 56.347656 C 199.242188 55.929688 199.574219 55.523438 199.917969 55.125 C 200.261719 54.726562 200.617188 54.339844 200.984375 53.960938 C 201.355469 53.585938 201.734375 53.222656 202.125 52.867188 C 202.515625 52.515625 202.914062 52.175781 203.324219 51.847656 C 203.738281 51.519531 204.160156 51.207031 204.589844 50.902344 Z M 204.589844 50.902344 " fill-opacity="0.78" fill-rule="evenodd"/><path fill="#56ba48" d="M 172.921875 89.257812 C 173.621094 89.257812 174.316406 89.222656 175.011719 89.152344 C 175.707031 89.085938 176.398438 88.984375 177.085938 88.847656 C 177.769531 88.710938 178.445312 88.542969 179.113281 88.339844 C 179.785156 88.136719 180.441406 87.898438 181.085938 87.632812 C 181.730469 87.363281 182.363281 87.066406 182.980469 86.738281 C 183.59375 86.40625 184.195312 86.046875 184.773438 85.660156 C 185.355469 85.269531 185.917969 84.855469 186.457031 84.410156 C 186.996094 83.96875 187.515625 83.5 188.007812 83.003906 C 188.503906 82.507812 188.972656 81.992188 189.414062 81.453125 C 189.859375 80.910156 190.273438 80.347656 190.660156 79.769531 C 191.050781 79.1875 191.410156 78.585938 191.738281 77.96875 C 192.066406 77.351562 192.367188 76.722656 192.632812 76.074219 C 192.902344 75.429688 193.136719 74.769531 193.339844 74.101562 C 193.542969 73.433594 193.710938 72.753906 193.847656 72.070312 C 193.984375 71.382812 194.089844 70.691406 194.15625 69.996094 C 194.226562 69.300781 194.257812 68.601562 194.257812 67.902344 C 194.261719 67.203125 194.226562 66.503906 194.15625 65.808594 C 194.089844 65.113281 193.988281 64.421875 193.851562 63.734375 C 193.714844 63.046875 193.546875 62.371094 193.34375 61.699219 C 193.140625 61.03125 192.90625 60.375 192.636719 59.726562 C 192.371094 59.082031 192.070312 58.449219 191.742188 57.832031 C 191.414062 57.214844 191.054688 56.617188 190.667969 56.035156 C 190.277344 55.453125 189.863281 54.890625 189.421875 54.351562 C 188.976562 53.808594 188.507812 53.292969 188.015625 52.796875 C 187.519531 52.300781 187.003906 51.832031 186.464844 51.386719 C 185.921875 50.945312 185.363281 50.527344 184.78125 50.140625 C 184.203125 49.75 183.601562 49.390625 182.988281 49.0625 C 182.371094 48.730469 181.738281 48.433594 181.09375 48.164062 C 180.449219 47.898438 179.792969 47.660156 179.125 47.457031 C 178.453125 47.253906 177.777344 47.085938 177.09375 46.949219 C 176.40625 46.8125 175.71875 46.710938 175.023438 46.640625 C 174.328125 46.574219 173.628906 46.539062 172.929688 46.539062 C 172.234375 46.539062 171.535156 46.574219 170.839844 46.640625 C 170.144531 46.710938 169.453125 46.8125 168.769531 46.949219 C 168.085938 47.085938 167.40625 47.253906 166.738281 47.457031 C 166.070312 47.660156 165.414062 47.894531 164.769531 48.164062 C 164.121094 48.429688 163.492188 48.730469 162.875 49.058594 C 162.257812 49.390625 161.660156 49.75 161.078125 50.136719 C 160.5 50.527344 159.9375 50.941406 159.398438 51.386719 C 158.859375 51.828125 158.339844 52.296875 157.847656 52.792969 C 157.351562 53.289062 156.882812 53.804688 156.441406 54.347656 C 155.996094 54.886719 155.582031 55.449219 155.195312 56.03125 C 154.804688 56.613281 154.445312 57.210938 154.117188 57.828125 C 153.789062 58.445312 153.488281 59.078125 153.222656 59.722656 C 152.953125 60.371094 152.71875 61.027344 152.515625 61.695312 C 152.3125 62.367188 152.144531 63.042969 152.007812 63.730469 C 151.871094 64.417969 151.769531 65.105469 151.703125 65.804688 C 151.632812 66.5 151.597656 67.199219 151.597656 67.898438 C 151.601562 68.597656 151.636719 69.292969 151.703125 69.988281 C 151.773438 70.683594 151.878906 71.375 152.015625 72.0625 C 152.152344 72.746094 152.320312 73.421875 152.523438 74.09375 C 152.730469 74.761719 152.964844 75.417969 153.230469 76.0625 C 153.5 76.710938 153.796875 77.339844 154.128906 77.957031 C 154.457031 78.574219 154.816406 79.171875 155.203125 79.753906 C 155.59375 80.332031 156.007812 80.894531 156.449219 81.433594 C 156.894531 81.976562 157.363281 82.492188 157.855469 82.988281 C 158.347656 83.480469 158.867188 83.949219 159.40625 84.394531 C 159.945312 84.835938 160.503906 85.253906 161.085938 85.640625 C 161.664062 86.03125 162.261719 86.390625 162.878906 86.71875 C 163.492188 87.050781 164.125 87.351562 164.769531 87.617188 C 165.414062 87.886719 166.070312 88.121094 166.738281 88.328125 C 167.402344 88.53125 168.082031 88.699219 168.765625 88.839844 C 169.449219 88.976562 170.140625 89.078125 170.832031 89.148438 C 171.527344 89.21875 172.222656 89.253906 172.921875 89.257812 Z M 172.921875 89.257812 " fill-opacity="0.78" fill-rule="evenodd"/><g fill="#000000" fill-opacity="1"><g transform="translate(44.826607, 273.965639)"><g><path d="M 22.96875 -6.328125 L 9.25 -6.328125 L 6.625 0 L -0.375 0 L 12.796875 -29.546875 L 19.546875 -29.546875 L 32.765625 0 L 25.578125 0 Z M 20.8125 -11.53125 L 16.125 -22.84375 L 11.4375 -11.53125 Z M 20.8125 -11.53125 "/></g></g></g><g fill="#000000" fill-opacity="1"><g transform="translate(79.308907, 273.965639)"><g><path d="M 3.5 -29.546875 L 10.34375 -29.546875 L 10.34375 -5.578125 L 25.15625 -5.578125 L 25.15625 0 L 3.5 0 Z M 3.5 -29.546875 "/></g></g></g><g fill="#000000" fill-opacity="1"><g transform="translate(106.953976, 273.965639)"><g><path d="M 23.46875 -15.234375 L 29.71875 -15.234375 L 29.71875 -3.25 C 28.113281 -2.039062 26.253906 -1.113281 24.140625 -0.46875 C 22.035156 0.175781 19.914062 0.5 17.78125 0.5 C 14.707031 0.5 11.945312 -0.148438 9.5 -1.453125 C 7.050781 -2.765625 5.128906 -4.582031 3.734375 -6.90625 C 2.335938 -9.226562 1.640625 -11.851562 1.640625 -14.78125 C 1.640625 -17.707031 2.335938 -20.332031 3.734375 -22.65625 C 5.128906 -24.976562 7.0625 -26.789062 9.53125 -28.09375 C 12.007812 -29.40625 14.800781 -30.0625 17.90625 -30.0625 C 20.488281 -30.0625 22.835938 -29.625 24.953125 -28.75 C 27.066406 -27.875 28.835938 -26.609375 30.265625 -24.953125 L 25.875 -20.890625 C 23.769531 -23.117188 21.222656 -24.234375 18.234375 -24.234375 C 16.347656 -24.234375 14.671875 -23.835938 13.203125 -23.046875 C 11.742188 -22.265625 10.609375 -21.15625 9.796875 -19.71875 C 8.984375 -18.28125 8.578125 -16.632812 8.578125 -14.78125 C 8.578125 -12.945312 8.984375 -11.3125 9.796875 -9.875 C 10.609375 -8.4375 11.738281 -7.316406 13.1875 -6.515625 C 14.644531 -5.710938 16.300781 -5.3125 18.15625 -5.3125 C 20.125 -5.3125 21.894531 -5.738281 23.46875 -6.59375 Z M 23.46875 -15.234375 "/></g></g></g><g fill="#000000" fill-opacity="1"><g transform="translate(141.647314, 273.965639)"><g><path d="M 17.8125 0.5 C 14.75 0.5 11.984375 -0.160156 9.515625 -1.484375 C 7.054688 -2.804688 5.128906 -4.625 3.734375 -6.9375 C 2.335938 -9.257812 1.640625 -11.875 1.640625 -14.78125 C 1.640625 -17.675781 2.335938 -20.285156 3.734375 -22.609375 C 5.128906 -24.929688 7.054688 -26.753906 9.515625 -28.078125 C 11.984375 -29.398438 14.75 -30.0625 17.8125 -30.0625 C 20.882812 -30.0625 23.644531 -29.398438 26.09375 -28.078125 C 28.539062 -26.753906 30.46875 -24.929688 31.875 -22.609375 C 33.28125 -20.285156 33.984375 -17.675781 33.984375 -14.78125 C 33.984375 -11.875 33.28125 -9.257812 31.875 -6.9375 C 30.46875 -4.625 28.539062 -2.804688 26.09375 -1.484375 C 23.644531 -0.160156 20.882812 0.5 17.8125 0.5 Z M 17.8125 -5.3125 C 19.5625 -5.3125 21.140625 -5.710938 22.546875 -6.515625 C 23.953125 -7.316406 25.054688 -8.4375 25.859375 -9.875 C 26.660156 -11.3125 27.0625 -12.945312 27.0625 -14.78125 C 27.0625 -16.601562 26.660156 -18.234375 25.859375 -19.671875 C 25.054688 -21.109375 23.953125 -22.226562 22.546875 -23.03125 C 21.140625 -23.832031 19.5625 -24.234375 17.8125 -24.234375 C 16.070312 -24.234375 14.5 -23.832031 13.09375 -23.03125 C 11.6875 -22.226562 10.582031 -21.109375 9.78125 -19.671875 C 8.976562 -18.234375 8.578125 -16.601562 8.578125 -14.78125 C 8.578125 -12.945312 8.976562 -11.3125 9.78125 -9.875 C 10.582031 -8.4375 11.6875 -7.316406 13.09375 -6.515625 C 14.5 -5.710938 16.070312 -5.3125 17.8125 -5.3125 Z M 17.8125 -5.3125 "/></g></g></g><g fill="#000000" fill-opacity="1"><g transform="translate(179.421609, 273.965639)"><g><path d="M 22.328125 0 L 16.640625 -8.234375 L 10.34375 -8.234375 L 10.34375 0 L 3.5 0 L 3.5 -29.546875 L 16.296875 -29.546875 C 18.910156 -29.546875 21.179688 -29.109375 23.109375 -28.234375 C 25.035156 -27.367188 26.519531 -26.132812 27.5625 -24.53125 C 28.601562 -22.925781 29.125 -21.023438 29.125 -18.828125 C 29.125 -16.628906 28.597656 -14.734375 27.546875 -13.140625 C 26.492188 -11.554688 24.992188 -10.34375 23.046875 -9.5 L 29.6875 0 Z M 22.203125 -18.828125 C 22.203125 -20.492188 21.664062 -21.769531 20.59375 -22.65625 C 19.53125 -23.539062 17.972656 -23.984375 15.921875 -23.984375 L 10.34375 -23.984375 L 10.34375 -13.671875 L 15.921875 -13.671875 C 17.972656 -13.671875 19.53125 -14.117188 20.59375 -15.015625 C 21.664062 -15.921875 22.203125 -17.191406 22.203125 -18.828125 Z M 22.203125 -18.828125 "/></g></g></g><g fill="#000000" fill-opacity="1"><g transform="translate(212.595554, 273.965639)"><g><path d="M 3.5 -29.546875 L 10.34375 -29.546875 L 10.34375 0 L 3.5 0 Z M 6.921875 -32.171875 C 5.878906 -32.171875 5.023438 -32.507812 4.359375 -33.1875 C 3.703125 -33.863281 3.375 -34.722656 3.375 -35.765625 C 3.375 -36.773438 3.703125 -37.617188 4.359375 -38.296875 C 5.023438 -38.972656 5.878906 -39.3125 6.921875 -39.3125 C 7.960938 -39.3125 8.8125 -38.972656 9.46875 -38.296875 C 10.132812 -37.617188 10.46875 -36.773438 10.46875 -35.765625 C 10.46875 -34.722656 10.132812 -33.863281 9.46875 -33.1875 C 8.8125 -32.507812 7.960938 -32.171875 6.921875 -32.171875 Z M 6.921875 -32.171875 "/></g></g></g><g fill="#000000" fill-opacity="1"><g transform="translate(228.592004, 273.965639)"><g><path d="M 9.625 -23.984375 L 0.171875 -23.984375 L 0.171875 -29.546875 L 25.921875 -29.546875 L 25.921875 -23.984375 L 16.46875 -23.984375 L 16.46875 0 L 9.625 0 Z M 9.625 -23.984375 "/></g></g></g><g fill="#000000" fill-opacity="1"><g transform="translate(256.82794, 273.965639)"><g><path d="M 30.390625 0 L 30.359375 -17.734375 L 21.65625 -3.125 L 18.578125 -3.125 L 9.921875 -17.359375 L 9.921875 0 L 3.5 0 L 3.5 -29.546875 L 9.15625 -29.546875 L 20.21875 -11.1875 L 31.109375 -29.546875 L 36.734375 -29.546875 L 36.8125 0 Z M 30.390625 0 "/></g></g></g><g fill="#000000" fill-opacity="1"><g transform="translate(299.287013, 273.965639)"><g><path d="M 22.96875 -6.328125 L 9.25 -6.328125 L 6.625 0 L -0.375 0 L 12.796875 -29.546875 L 19.546875 -29.546875 L 32.765625 0 L 25.578125 0 Z M 20.8125 -11.53125 L 16.125 -22.84375 L 11.4375 -11.53125 Z M 20.8125 -11.53125 "/></g></g></g><g fill="#000000" fill-opacity="1"><g transform="translate(130.265681, 301.999009)"><g><path d="M 10.03125 -2.765625 L 4.03125 -2.765625 L 2.890625 0 L -0.171875 0 L 5.59375 -12.90625 L 8.53125 -12.90625 L 14.3125 0 L 11.171875 0 Z M 9.09375 -5.03125 L 7.046875 -9.96875 L 5 -5.03125 Z M 9.09375 -5.03125 "/></g></g></g><g fill="#000000" fill-opacity="1"><g transform="translate(148.186938, 301.999009)"><g><path d="M 6.234375 -5.0625 L 4.5 -3.265625 L 4.5 0 L 1.53125 0 L 1.53125 -12.90625 L 4.5 -12.90625 L 4.5 -6.875 L 10.21875 -12.90625 L 13.53125 -12.90625 L 8.1875 -7.15625 L 13.84375 0 L 10.359375 0 Z M 6.234375 -5.0625 "/></g></g></g><g fill="#000000" fill-opacity="1"><g transform="translate(165.62889, 301.999009)"><g><path d="M 10.03125 -2.765625 L 4.03125 -2.765625 L 2.890625 0 L -0.171875 0 L 5.59375 -12.90625 L 8.53125 -12.90625 L 14.3125 0 L 11.171875 0 Z M 9.09375 -5.03125 L 7.046875 -9.96875 L 5 -5.03125 Z M 9.09375 -5.03125 "/></g></g></g><g fill="#000000" fill-opacity="1"><g transform="translate(183.550147, 301.999009)"><g><path d="M 1.53125 -12.90625 L 7.390625 -12.90625 C 8.796875 -12.90625 10.035156 -12.632812 11.109375 -12.09375 C 12.179688 -11.5625 13.015625 -10.8125 13.609375 -9.84375 C 14.210938 -8.875 14.515625 -7.742188 14.515625 -6.453125 C 14.515625 -5.160156 14.210938 -4.03125 13.609375 -3.0625 C 13.015625 -2.09375 12.179688 -1.335938 11.109375 -0.796875 C 10.035156 -0.265625 8.796875 0 7.390625 0 L 1.53125 0 Z M 7.25 -2.453125 C 8.539062 -2.453125 9.566406 -2.8125 10.328125 -3.53125 C 11.097656 -4.25 11.484375 -5.222656 11.484375 -6.453125 C 11.484375 -7.679688 11.097656 -8.65625 10.328125 -9.375 C 9.566406 -10.09375 8.539062 -10.453125 7.25 -10.453125 L 4.515625 -10.453125 L 4.515625 -2.453125 Z M 7.25 -2.453125 "/></g></g></g><g fill="#000000" fill-opacity="1"><g transform="translate(202.577476, 301.999009)"><g><path d="M 11.515625 -2.390625 L 11.515625 0 L 1.53125 0 L 1.53125 -12.90625 L 11.28125 -12.90625 L 11.28125 -10.515625 L 4.5 -10.515625 L 4.5 -7.703125 L 10.484375 -7.703125 L 10.484375 -5.390625 L 4.5 -5.390625 L 4.5 -2.390625 Z M 11.515625 -2.390625 "/></g></g></g><g fill="#000000" fill-opacity="1"><g transform="translate(218.74745, 301.999009)"><g><path d="M 13.28125 0 L 13.25 -7.75 L 9.453125 -1.359375 L 8.109375 -1.359375 L 4.328125 -7.578125 L 4.328125 0 L 1.53125 0 L 1.53125 -12.90625 L 4 -12.90625 L 8.828125 -4.890625 L 13.59375 -12.90625 L 16.046875 -12.90625 L 16.078125 0 Z M 13.28125 0 "/></g></g></g><g fill="#000000" fill-opacity="1"><g transform="translate(240.152828, 301.999009)"><g><path d="M 1.53125 -12.90625 L 4.515625 -12.90625 L 4.515625 0 L 1.53125 0 Z M 3.03125 -14.046875 C 2.570312 -14.046875 2.195312 -14.191406 1.90625 -14.484375 C 1.625 -14.785156 1.484375 -15.160156 1.484375 -15.609375 C 1.484375 -16.054688 1.625 -16.425781 1.90625 -16.71875 C 2.195312 -17.019531 2.570312 -17.171875 3.03125 -17.171875 C 3.488281 -17.171875 3.859375 -17.019531 4.140625 -16.71875 C 4.429688 -16.425781 4.578125 -16.054688 4.578125 -15.609375 C 4.578125 -15.160156 4.429688 -14.785156 4.140625 -14.484375 C 3.859375 -14.191406 3.488281 -14.046875 3.03125 -14.046875 Z M 3.03125 -14.046875 "/></g></g></g></svg>