<svg xmlns="http://www.w3.org/2000/svg" xmlns:xlink="http://www.w3.org/1999/xlink" width="500" zoomAndPan="magnify" viewBox="0 0 375 374.999991" height="500" preserveAspectRatio="xMidYMid meet" version="1.0"><defs><g/><clipPath id="e6ad39e47c"><path d="M 108.71875 55 L 132 55 L 132 135 L 108.71875 135 Z M 108.71875 55 " clip-rule="nonzero"/></clipPath><clipPath id="fa8bfa5c47"><path d="M 111 53.753906 L 144 53.753906 L 144 91 L 111 91 Z M 111 53.753906 " clip-rule="nonzero"/></clipPath><clipPath id="f4aba24275"><path d="M 243 55 L 266.21875 55 L 266.21875 135 L 243 135 Z M 243 55 " clip-rule="nonzero"/></clipPath><clipPath id="bf99454601"><path d="M 231 53.753906 L 264 53.753906 L 264 91 L 231 91 Z M 231 53.753906 " clip-rule="nonzero"/></clipPath><clipPath id="e3398c27c9"><path d="M 228 141 L 266 141 L 266 187.253906 L 228 187.253906 Z M 228 141 " clip-rule="nonzero"/></clipPath><clipPath id="5f99253af4"><path d="M 109 141 L 147 141 L 147 187.253906 L 109 187.253906 Z M 109 141 " clip-rule="nonzero"/></clipPath></defs><path fill="#005789" d="M 145.871094 161.734375 L 145.871094 121.089844 L 112.398438 139.175781 Z M 145.871094 161.734375 " fill-opacity="1" fill-rule="evenodd"/><path fill="#0e6db8" d="M 111.9375 135.609375 L 145.289062 117.589844 L 133.582031 97.628906 Z M 111.9375 135.609375 " fill-opacity="1" fill-rule="evenodd"/><g clip-path="url(#e6ad39e47c)"><path fill="#0a727b" d="M 108.71875 134.476562 L 131.621094 94.289062 L 108.71875 55.246094 Z M 108.71875 134.476562 " fill-opacity="1" fill-rule="evenodd"/></g><g clip-path="url(#fa8bfa5c47)"><path fill="#016037" d="M 111.742188 53.765625 L 133.539062 90.921875 L 143.71875 73.058594 Z M 111.742188 53.765625 " fill-opacity="1" fill-rule="evenodd"/></g><path fill="#5f802f" d="M 145.78125 76.21875 L 135.5 94.265625 L 146.007812 112.179688 Z M 145.78125 76.21875 " fill-opacity="1" fill-rule="evenodd"/><path fill="#8dc943" d="M 149.140625 76.332031 L 149.386719 115.375 L 183.398438 97 Z M 149.140625 76.332031 " fill-opacity="1" fill-rule="evenodd"/><path fill="#f2ee2c" d="M 185.164062 99.859375 L 150.023438 118.847656 L 185.164062 139.832031 Z M 185.164062 99.859375 " fill-opacity="1" fill-rule="evenodd"/><path fill="#4e1f6f" d="M 229.070312 161.734375 L 229.070312 121.089844 L 262.539062 139.175781 Z M 229.070312 161.734375 " fill-opacity="1" fill-rule="evenodd"/><path fill="#57003d" d="M 263.003906 135.609375 L 229.652344 117.589844 L 241.359375 97.628906 Z M 263.003906 135.609375 " fill-opacity="1" fill-rule="evenodd"/><g clip-path="url(#f4aba24275)"><path fill="#9a015b" d="M 266.21875 134.476562 L 243.316406 94.289062 L 266.21875 55.246094 Z M 266.21875 134.476562 " fill-opacity="1" fill-rule="evenodd"/></g><g clip-path="url(#bf99454601)"><path fill="#da0f5e" d="M 263.199219 53.765625 L 241.398438 90.921875 L 231.222656 73.058594 Z M 263.199219 53.765625 " fill-opacity="1" fill-rule="evenodd"/></g><path fill="#e60513" d="M 229.15625 76.21875 L 239.441406 94.265625 L 228.933594 112.179688 Z M 229.15625 76.21875 " fill-opacity="1" fill-rule="evenodd"/><path fill="#f74924" d="M 225.796875 76.332031 L 225.554688 115.375 L 191.542969 97 Z M 225.796875 76.332031 " fill-opacity="1" fill-rule="evenodd"/><path fill="#f89426" d="M 189.773438 99.859375 L 224.917969 118.847656 L 189.773438 139.832031 Z M 189.773438 99.859375 " fill-opacity="1" fill-rule="evenodd"/><g clip-path="url(#e3398c27c9)"><path fill="#3c1657" d="M 265.972656 187.238281 L 265.972656 141.195312 L 228.683594 165.117188 Z M 265.972656 187.238281 " fill-opacity="1" fill-rule="evenodd"/></g><g clip-path="url(#5f99253af4)"><path fill="#033654" d="M 109.117188 187.238281 L 109.117188 141.195312 L 146.40625 165.117188 Z M 109.117188 187.238281 " fill-opacity="1" fill-rule="evenodd"/></g><g fill="#000000" fill-opacity="1"><g transform="translate(123.975312, 253.6651)"><g><path d="M 33.40625 -24.164062 L 33.40625 -6.007812 L 30.816406 -6.007812 L 30.816406 0 L 45.417969 0 L 45.417969 -6.007812 L 42.875 -6.007812 L 42.875 -26.335938 L 45.417969 -26.335938 L 45.417969 -32.296875 L 27.8125 -32.296875 L 23.378906 -15.015625 L 18.710938 -32.296875 L 1.203125 -32.296875 L 1.203125 -26.335938 L 3.648438 -26.335938 L 3.648438 -5.960938 L 1.15625 -5.960938 L 1.15625 0 L 13.675781 0 L 13.675781 -5.960938 L 11.042969 -5.960938 L 11.042969 -24.164062 L 11.226562 -24.164062 C 11.367188 -21.855469 11.964844 -19.21875 12.199219 -18.433594 L 17.371094 0 L 27.027344 0 L 31.878906 -17.972656 C 32.203125 -19.035156 32.851562 -22.085938 33.21875 -24.164062 Z M 33.40625 -24.164062 "/></g></g></g><g fill="#000000" fill-opacity="1"><g transform="translate(179.497541, 253.6651)"><g><path d="M 1.15625 -32.296875 L 1.15625 -26.195312 L 4.066406 -26.195312 L 4.066406 -6.144531 L 1.15625 -6.144531 L 1.15625 0 L 29.015625 0 L 29.015625 -10.441406 L 21.023438 -10.441406 L 21.023438 -6.144531 L 13.628906 -6.144531 L 13.628906 -13.675781 L 22.410156 -13.675781 L 22.410156 -19.820312 L 13.628906 -19.820312 L 13.628906 -26.195312 L 21.023438 -26.195312 L 21.023438 -22.085938 L 29.015625 -22.085938 L 29.015625 -32.296875 Z M 1.15625 -32.296875 "/></g></g></g><g fill="#000000" fill-opacity="1"><g transform="translate(218.622909, 253.6651)"><g><path d="M 31.695312 -32.296875 L 0.691406 -32.296875 L 0.691406 -20.28125 L 7.484375 -20.28125 L 7.484375 -26.195312 L 11.457031 -26.195312 L 11.457031 -6.144531 L 7.667969 -6.144531 L 7.667969 0 L 24.855469 0 L 24.855469 -6.144531 L 21.023438 -6.144531 L 21.023438 -26.195312 L 24.902344 -26.195312 L 24.902344 -20.28125 L 31.695312 -20.28125 Z M 31.695312 -32.296875 "/></g></g></g><g fill="#000000" fill-opacity="1"><g transform="translate(85.608812, 301.298358)"><g><path d="M 37.332031 0 L 37.332031 -6.050781 L 34.097656 -6.050781 L 25.917969 -32.296875 L 8.179688 -32.296875 L 8.179688 -26.335938 L 10.070312 -26.335938 L 3.835938 -6.050781 L 0.691406 -6.050781 L 0.691406 0 L 15.386719 0 L 15.386719 -6.050781 L 11.78125 -6.050781 L 12.753906 -9.195312 L 22.222656 -9.195312 L 23.195312 -6.050781 L 18.804688 -6.050781 L 18.804688 0 Z M 14.460938 -14.738281 L 17.464844 -24.71875 L 20.515625 -14.738281 Z M 14.460938 -14.738281 "/></g></g></g><g fill="#000000" fill-opacity="1"><g transform="translate(132.586191, 301.298358)"><g><path d="M 0.925781 8.917969 C 1.664062 9.195312 2.496094 9.425781 3.371094 9.425781 C 12.890625 9.425781 16.402344 4.757812 16.402344 -3.417969 L 16.402344 -26.242188 L 20.238281 -26.242188 L 20.238281 -32.296875 L 2.863281 -32.296875 L 2.863281 -26.242188 L 6.839844 -26.242188 L 6.839844 -3.417969 C 6.839844 1.523438 5.3125 3.234375 3.003906 3.234375 C 2.171875 3.234375 1.523438 3.09375 0.925781 2.820312 Z M 0.925781 8.917969 "/></g></g></g><g fill="#000000" fill-opacity="1"><g transform="translate(162.935766, 301.298358)"><g><path d="M 37.332031 0 L 37.332031 -6.050781 L 34.097656 -6.050781 L 25.917969 -32.296875 L 8.179688 -32.296875 L 8.179688 -26.335938 L 10.070312 -26.335938 L 3.835938 -6.050781 L 0.691406 -6.050781 L 0.691406 0 L 15.386719 0 L 15.386719 -6.050781 L 11.78125 -6.050781 L 12.753906 -9.195312 L 22.222656 -9.195312 L 23.195312 -6.050781 L 18.804688 -6.050781 L 18.804688 0 Z M 14.460938 -14.738281 L 17.464844 -24.71875 L 20.515625 -14.738281 Z M 14.460938 -14.738281 "/></g></g></g><g fill="#000000" fill-opacity="1"><g transform="translate(209.913139, 301.298358)"><g><path d="M 36.546875 -26.335938 L 36.546875 -32.296875 L 22.640625 -32.296875 L 22.640625 -26.335938 L 25.78125 -26.335938 L 25.78125 -15.339844 L 14.460938 -32.296875 L 1.203125 -32.296875 L 1.203125 -26.335938 L 3.882812 -26.335938 L 3.882812 -5.960938 L 1.15625 -5.960938 L 1.15625 0 L 15.339844 0 L 15.339844 -5.960938 L 11.78125 -5.960938 L 11.78125 -17.601562 L 23.5625 0 L 33.496094 0 L 33.496094 -26.335938 Z M 36.546875 -26.335938 "/></g></g></g><g fill="#000000" fill-opacity="1"><g transform="translate(256.567211, 301.298358)"><g><path d="M 1.15625 0 L 9.242188 0 L 9.75 -3.558594 C 11.503906 -1.476562 14.738281 0.691406 19.40625 0.691406 C 24.902344 0.691406 31.648438 -1.894531 31.648438 -9.101562 C 31.648438 -19.960938 13.351562 -18.851562 13.351562 -23.609375 C 13.351562 -25.226562 15.199219 -26.058594 16.539062 -26.058594 C 19.773438 -26.058594 22.453125 -24.117188 22.453125 -20.699219 L 30.816406 -20.699219 L 30.816406 -32.296875 L 22.871094 -32.296875 L 22.410156 -28.414062 C 20.558594 -31.878906 16.632812 -33.128906 12.753906 -33.128906 C 8.222656 -33.128906 1.753906 -30.03125 1.753906 -23.195312 C 1.753906 -11.410156 19.496094 -12.9375 19.496094 -9.332031 C 19.496094 -7.390625 17.1875 -7.023438 15.570312 -7.023438 C 13.628906 -7.113281 9.75 -7.761719 9.75 -11.644531 L 1.15625 -11.644531 Z M 1.15625 0 "/></g></g></g></svg>