<svg xmlns="http://www.w3.org/2000/svg" xmlns:xlink="http://www.w3.org/1999/xlink" width="500" zoomAndPan="magnify" viewBox="0 0 375 374.999991" height="500" preserveAspectRatio="xMidYMid meet" version="1.0"><defs><g/><clipPath id="27a66ae624"><path d="M 110.515625 157.09375 L 162 157.09375 L 162 201.390625 L 110.515625 201.390625 Z M 110.515625 157.09375 " clip-rule="nonzero"/></clipPath><clipPath id="2e33af1c61"><path d="M 136 113.640625 L 213.191406 113.640625 L 213.191406 201.390625 L 136 201.390625 Z M 136 113.640625 " clip-rule="nonzero"/></clipPath><clipPath id="15f618a3ad"><path d="M 187.402344 113.640625 L 264.214844 113.640625 L 264.214844 201.390625 L 187.402344 201.390625 Z M 187.402344 113.640625 " clip-rule="nonzero"/></clipPath></defs><g clip-path="url(#27a66ae624)"><path fill="#ffde59" d="M 149.007812 157.144531 L 123.363281 157.144531 L 110.515625 179.398438 L 123.363281 201.605469 L 149.007812 201.605469 L 161.851562 179.398438 L 149.007812 157.144531 " fill-opacity="1" fill-rule="nonzero"/></g><g clip-path="url(#2e33af1c61)"><path fill="#a066cb" d="M 205.066406 165.359375 L 205.070312 165.359375 L 204.207031 163.859375 L 200.34375 157.144531 L 200.328125 157.144531 L 183.054688 127.246094 L 183.050781 127.25 L 174.652344 112.730469 L 149.007812 112.730469 L 136.160156 134.9375 L 144.804688 149.882812 L 165.96875 186.539062 L 174.652344 201.605469 L 200.34375 201.605469 L 213.140625 179.398438 L 205.066406 165.359375 " fill-opacity="1" fill-rule="nonzero"/></g><g clip-path="url(#15f618a3ad)"><path fill="#1836b2" d="M 255.753906 164.277344 L 255.789062 164.257812 L 233.820312 126.148438 L 233.769531 126.179688 L 225.988281 112.730469 L 200.34375 112.730469 L 187.496094 134.9375 L 200.34375 157.144531 L 200.351562 157.144531 L 213.179688 179.332031 L 213.140625 179.398438 L 225.988281 201.605469 L 251.632812 201.605469 L 264.480469 179.398438 L 255.753906 164.277344 " fill-opacity="1" fill-rule="nonzero"/></g><g fill="#06122a" fill-opacity="1"><g transform="translate(78.785156, 247.609731)"><g><path d="M 20.953125 0 L 19.40625 -7.09375 L 10.203125 -7.09375 L 8.65625 0 L -0.953125 0 L 9.34375 -34.75 L 20.453125 -34.75 L 30.75 0 Z M 11.65625 -13.703125 L 17.953125 -13.703125 L 14.796875 -28.15625 Z M 11.65625 -13.703125 "/></g></g></g><g fill="#06122a" fill-opacity="1"><g transform="translate(108.580545, 247.609731)"><g><path d="M 14.5 -12.796875 L 11.953125 -12.796875 L 11.953125 0 L 2.703125 0 L 2.703125 -34.75 L 14.75 -34.75 C 19.644531 -34.75 23.300781 -33.863281 25.71875 -32.09375 C 28.132812 -30.332031 29.34375 -27.617188 29.34375 -23.953125 C 29.34375 -21.753906 28.832031 -19.921875 27.8125 -18.453125 C 26.800781 -16.984375 25.179688 -15.664062 22.953125 -14.5 L 31.59375 0 L 21.296875 0 Z M 11.953125 -19.09375 L 15.046875 -19.09375 C 18.242188 -19.09375 19.84375 -20.710938 19.84375 -23.953125 C 19.84375 -25.453125 19.398438 -26.550781 18.515625 -27.25 C 17.640625 -27.945312 16.316406 -28.296875 14.546875 -28.296875 L 11.953125 -28.296875 Z M 11.953125 -19.09375 "/></g></g></g><g fill="#06122a" fill-opacity="1"><g transform="translate(139.575744, 247.609731)"><g><path d="M 14.703125 -35.65625 C 17.335938 -35.65625 19.660156 -35.269531 21.671875 -34.5 C 23.691406 -33.726562 25.5 -32.578125 27.09375 -31.046875 L 22.953125 -26.15625 C 20.546875 -28.050781 18.03125 -29 15.40625 -29 C 14.03125 -29 12.984375 -28.738281 12.265625 -28.21875 C 11.554688 -27.707031 11.203125 -26.984375 11.203125 -26.046875 C 11.203125 -25.378906 11.382812 -24.828125 11.75 -24.390625 C 12.113281 -23.960938 12.726562 -23.546875 13.59375 -23.140625 C 14.46875 -22.742188 15.835938 -22.25 17.703125 -21.65625 C 21.265625 -20.519531 23.867188 -19.09375 25.515625 -17.375 C 27.171875 -15.65625 28 -13.28125 28 -10.25 C 28 -8.050781 27.429688 -6.109375 26.296875 -4.421875 C 25.160156 -2.742188 23.519531 -1.4375 21.375 -0.5 C 19.226562 0.4375 16.703125 0.90625 13.796875 0.90625 C 8.265625 0.90625 3.75 -0.78125 0.25 -4.15625 L 4.796875 -9.203125 C 7.566406 -6.929688 10.453125 -5.796875 13.453125 -5.796875 C 15.015625 -5.796875 16.226562 -6.132812 17.09375 -6.8125 C 17.96875 -7.5 18.40625 -8.410156 18.40625 -9.546875 C 18.40625 -10.347656 18.238281 -11.003906 17.90625 -11.515625 C 17.570312 -12.035156 16.976562 -12.503906 16.125 -12.921875 C 15.269531 -13.335938 14.03125 -13.796875 12.40625 -14.296875 C 8.46875 -15.535156 5.695312 -17.019531 4.09375 -18.75 C 2.5 -20.476562 1.703125 -22.660156 1.703125 -25.296875 C 1.703125 -27.367188 2.257812 -29.1875 3.375 -30.75 C 4.488281 -32.3125 6.035156 -33.519531 8.015625 -34.375 C 10.003906 -35.226562 12.234375 -35.65625 14.703125 -35.65625 Z M 14.703125 -35.65625 "/></g></g></g><g fill="#06122a" fill-opacity="1"><g transform="translate(168.571259, 247.609731)"><g><path d="M 11.953125 -34.75 L 11.953125 0 L 2.703125 0 L 2.703125 -34.75 Z M 32.203125 -34.75 L 21.75 -19.25 L 33.09375 0 L 22.5 0 L 12.25 -18.5 L 22.546875 -34.75 Z M 32.203125 -34.75 "/></g></g></g><g fill="#06122a" fill-opacity="1"><g transform="translate(200.866256, 247.609731)"><g><path d="M 11.953125 -34.75 L 11.953125 0 L 2.703125 0 L 2.703125 -34.75 Z M 11.953125 -34.75 "/></g></g></g><g fill="#06122a" fill-opacity="1"><g transform="translate(215.513983, 247.609731)"><g><path d="M 11.953125 -34.75 L 11.953125 -7.203125 L 25.296875 -7.203125 L 24.296875 0 L 2.703125 0 L 2.703125 -34.75 Z M 11.953125 -34.75 "/></g></g></g><g fill="#06122a" fill-opacity="1"><g transform="translate(241.359982, 247.609731)"><g><path d="M 11.953125 -34.75 L 11.953125 -7.203125 L 25.296875 -7.203125 L 24.296875 0 L 2.703125 0 L 2.703125 -34.75 Z M 11.953125 -34.75 "/></g></g></g><g fill="#06122a" fill-opacity="1"><g transform="translate(267.20598, 247.609731)"><g><path d="M 14.703125 -35.65625 C 17.335938 -35.65625 19.660156 -35.269531 21.671875 -34.5 C 23.691406 -33.726562 25.5 -32.578125 27.09375 -31.046875 L 22.953125 -26.15625 C 20.546875 -28.050781 18.03125 -29 15.40625 -29 C 14.03125 -29 12.984375 -28.738281 12.265625 -28.21875 C 11.554688 -27.707031 11.203125 -26.984375 11.203125 -26.046875 C 11.203125 -25.378906 11.382812 -24.828125 11.75 -24.390625 C 12.113281 -23.960938 12.726562 -23.546875 13.59375 -23.140625 C 14.46875 -22.742188 15.835938 -22.25 17.703125 -21.65625 C 21.265625 -20.519531 23.867188 -19.09375 25.515625 -17.375 C 27.171875 -15.65625 28 -13.28125 28 -10.25 C 28 -8.050781 27.429688 -6.109375 26.296875 -4.421875 C 25.160156 -2.742188 23.519531 -1.4375 21.375 -0.5 C 19.226562 0.4375 16.703125 0.90625 13.796875 0.90625 C 8.265625 0.90625 3.75 -0.78125 0.25 -4.15625 L 4.796875 -9.203125 C 7.566406 -6.929688 10.453125 -5.796875 13.453125 -5.796875 C 15.015625 -5.796875 16.226562 -6.132812 17.09375 -6.8125 C 17.96875 -7.5 18.40625 -8.410156 18.40625 -9.546875 C 18.40625 -10.347656 18.238281 -11.003906 17.90625 -11.515625 C 17.570312 -12.035156 16.976562 -12.503906 16.125 -12.921875 C 15.269531 -13.335938 14.03125 -13.796875 12.40625 -14.296875 C 8.46875 -15.535156 5.695312 -17.019531 4.09375 -18.75 C 2.5 -20.476562 1.703125 -22.660156 1.703125 -25.296875 C 1.703125 -27.367188 2.257812 -29.1875 3.375 -30.75 C 4.488281 -32.3125 6.035156 -33.519531 8.015625 -34.375 C 10.003906 -35.226562 12.234375 -35.65625 14.703125 -35.65625 Z M 14.703125 -35.65625 "/></g></g></g></svg>